<svg xmlns="http://www.w3.org/2000/svg">
<defs>
<font id="WickedMouse" horiz-adv-x="55" >
  <font-face 
    font-family="Wicked Mouse"
    font-weight="400"
    font-stretch="normal"
    units-per-em="2048"
    panose-1="2 0 5 0 0 0 0 0 0 0"
    ascent="1638"
    descent="-410"
    x-height="1632"
    cap-height="1648"
    bbox="-32 -679.632 2550 2553"
    underline-thickness="150"
    underline-position="-142"
    unicode-range="U+001D-U+F002"
  />
<missing-glyph horiz-adv-x="2109" 
d="M602 904h-41v206h41v-61c5 5 10 8 15 11c6 3 12 4 18 4c34 0 51 -22 51 -65v-95h-42v92c0 17 -7 26 -21 26s-21 -9 -21 -26v-92zM770 944c4 0 9 1 14 3c5 3 9 6 12 9s6 7 7 12c2 3 3 8 3 15c0 6 -1 11 -3 14c-1 5 -4 9 -7 12c-3 4 -7 7 -12 9c-3 2 -8 3 -14 3
s-11 -1 -14 -3c-5 -2 -8 -5 -11 -9c-3 -3 -6 -7 -8 -12s-3 -10 -3 -14s1 -9 3 -15c2 -5 5 -9 8 -12s7 -6 11 -9c6 -2 11 -3 14 -3zM811 1043l38 22v-161h-41v21h-2c-7 -14 -20 -21 -41 -21h-3c-9 0 -18 2 -26 6s-16 10 -24 17c-7 7 -12 15 -16 24c-3 9 -5 18 -5 27v6
c0 9 2 18 5 27c5 11 10 20 16 26c7 8 15 14 24 18c8 4 18 6 29 6c19 0 35 -6 46 -18zM861 904v161h41v-26c3 9 6 14 8 17c3 5 6 8 9 10c5 2 9 4 14 5c9 1 15 1 18 1l-13 -48c-11 0 -19 -3 -24 -8c-5 -6 -7 -15 -7 -26v-86h-46zM955 904v206h46v-117h1l33 71h55l-40 -78
l48 -82h-56l-40 70h-1v-70h-46zM1093 922l23 32c9 -9 20 -14 33 -14s20 4 20 12c0 5 -4 8 -11 9c-3 1 -7 3 -12 4s-9 2 -14 3l-6 3l-6 2c-2 1 -4 3 -5 4c-2 1 -4 3 -6 5c-3 3 -5 8 -7 13c-1 4 -2 10 -2 19s1 16 4 21c3 7 8 12 13 15c5 5 10 8 17 10c6 1 13 2 22 2
s18 -2 27 -5c9 -4 16 -9 23 -15l-25 -26c-7 6 -15 9 -24 9c-10 0 -15 -3 -15 -9s4 -10 11 -12c1 0 4 -1 8 -2l5 -1l6 -1c7 -2 13 -5 19 -8s11 -8 15 -14c3 -5 5 -11 5 -20v-5c0 -9 -1 -17 -4 -23s-8 -11 -13 -15c-5 -5 -11 -8 -19 -11c-9 -2 -16 -3 -22 -3c-9 0 -15 0 -17 1
c-6 1 -11 2 -15 4l-7 3l-7 3l-7 5zM1259 904h-43v206h43v-61c3 5 8 8 14 11s12 4 18 4c34 0 51 -22 51 -65v-95h-42v92c0 17 -7 26 -21 26c-13 0 -20 -9 -20 -26v-92zM1456 957c7 7 11 16 11 26c0 4 -1 9 -3 14c-2 6 -5 10 -8 12c-3 3 -7 6 -12 9c-5 2 -10 3 -15 3

<glyph glyph-name=".notdef" horiz-adv-x="2109" 
d="M602 904h-41v206h41v-61c5 5 10 8 15 11c6 3 12 4 18 4c34 0 51 -22 51 -65v-95h-42v92c0 17 -7 26 -21 26s-21 -9 -21 -26v-92zM770 944c4 0 9 1 14 3c5 3 9 6 12 9s6 7 7 12c2 3 3 8 3 15c0 6 -1 11 -3 14c-1 5 -4 9 -7 12c-3 4 -7 7 -12 9c-3 2 -8 3 -14 3
s-11 -1 -14 -3c-5 -2 -8 -5 -11 -9c-3 -3 -6 -7 -8 -12s-3 -10 -3 -14s1 -9 3 -15c2 -5 5 -9 8 -12s7 -6 11 -9c6 -2 11 -3 14 -3zM811 1043l38 22v-161h-41v21h-2c-7 -14 -20 -21 -41 -21h-3c-9 0 -18 2 -26 6s-16 10 -24 17c-7 7 -12 15 -16 24c-3 9 -5 18 -5 27v6
c0 9 2 18 5 27c5 11 10 20 16 26c7 8 15 14 24 18c8 4 18 6 29 6c19 0 35 -6 46 -18zM861 904v161h41v-26c3 9 6 14 8 17c3 5 6 8 9 10c5 2 9 4 14 5c9 1 15 1 18 1l-13 -48c-11 0 -19 -3 -24 -8c-5 -6 -7 -15 -7 -26v-86h-46zM955 904v206h46v-117h1l33 71h55l-40 -78
l48 -82h-56l-40 70h-1v-70h-46zM1093 922l23 32c9 -9 20 -14 33 -14s20 4 20 12c0 5 -4 8 -11 9c-3 1 -7 3 -12 4s-9 2 -14 3l-6 3l-6 2c-2 1 -4 3 -5 4c-2 1 -4 3 -6 5c-3 3 -5 8 -7 13c-1 4 -2 10 -2 19s1 16 4 21c3 7 8 12 13 15c5 5 10 8 17 10c6 1 13 2 22 2
s18 -2 27 -5c9 -4 16 -9 23 -15l-25 -26c-7 6 -15 9 -24 9c-10 0 -15 -3 -15 -9s4 -10 11 -12c1 0 4 -1 8 -2l5 -1l6 -1c7 -2 13 -5 19 -8s11 -8 15 -14c3 -5 5 -11 5 -20v-5c0 -9 -1 -17 -4 -23s-8 -11 -13 -15c-5 -5 -11 -8 -19 -11c-9 -2 -16 -3 -22 -3c-9 0 -15 0 -17 1
c-6 1 -11 2 -15 4l-7 3l-7 3l-7 5zM1259 904h-43v206h43v-61c3 5 8 8 14 11s12 4 18 4c34 0 51 -22 51 -65v-95h-42v92c0 17 -7 26 -21 26c-13 0 -20 -9 -20 -26v-92zM1456 957c7 7 11 16 11 26c0 4 -1 9 -3 14c-2 6 -5 10 -8 12c-3 3 -7 6 -12 9c-5 2 -10 3 -15 3
c-3 0 -8 -1 -14 -3c-4 -2 -8 -5 -12 -9c-3 -3 -6 -7 -8 -12s-3 -10 -3 -14c0 -10 4 -19 11 -26c9 -7 17 -11 26 -11c10 0 19 4 27 11zM1354 953c-5 11 -7 20 -7 29v1c0 11 2 21 7 32s11 19 18 25c9 7 17 13 26 17c10 3 20 5 31 5s22 -2 32 -5c9 -3 18 -9 27 -17
c7 -7 13 -15 18 -25c4 -9 6 -19 6 -32c0 -12 -2 -22 -6 -31c-5 -10 -11 -18 -18 -25c-9 -8 -18 -14 -27 -17c-9 -5 -19 -7 -32 -7c-11 0 -21 2 -30 7c-10 4 -19 10 -27 17s-14 15 -18 26zM1623 1058v-47c-10 7 -20 11 -30 11c-11 0 -20 -4 -27 -11s-10 -15 -10 -26
c0 -5 1 -10 3 -17c3 -5 5 -10 7 -14c3 -3 7 -6 12 -8c5 -3 11 -4 16 -4c11 0 21 4 29 12v-46c-5 -3 -10 -4 -15 -5c-9 -1 -14 -2 -15 -2h-6c-10 0 -19 2 -27 6c-11 4 -20 10 -27 18c-7 7 -13 15 -17 25c-4 9 -6 18 -6 27v2c0 12 2 23 6 34c4 10 10 19 18 27c7 7 16 13 26 17
c10 3 21 5 33 5c3 1 5 1 8 1c8 0 15 -2 22 -5zM1635 904v206h46v-117l33 71h56l-40 -78l48 -82h-56l-41 70v-70h-46zM1814 1121c-4 3 -9 5 -14 5c-6 0 -11 -2 -14 -5c-4 -4 -6 -9 -6 -14c0 -6 2 -11 6 -14c3 -4 8 -6 14 -6c5 0 10 2 14 6c3 3 5 8 5 14c0 5 -2 10 -5 14z
M1815 1090c-5 -5 -10 -7 -15 -7c-7 0 -12 2 -17 7c-4 5 -6 10 -6 17c0 6 2 11 6 15c5 5 10 7 17 7c5 0 10 -2 15 -7c5 -4 7 -9 7 -15c0 -7 -2 -12 -7 -17zM1793 1117v-8h10l2 1c1 1 1 1 1 2s0 3 -1 4s-3 1 -4 1h-8zM1793 1094h-4v25h11h5c1 -1 2 -1 3 -2c1 -3 2 -4 2 -5
s-1 -3 -2 -4s-3 -2 -6 -2c1 -1 2 -1 3 -1l1 -2l1 -2l5 -7h-5l-3 6l-1 2l-1 1l-2 2h-2h-5v-11zM1107 1545l-1 9v9l-3 -13c2 -3 3 -4 4 -5zM1234 1393v-1c0 -14 -6 -33 -19 -57c-3 -11 -7 -19 -14 -26c-7 -17 -19 -35 -37 -56l-2 -3l-1 -2c-2 -2 -4 -3 -5 -4l-4 -5l-3 -3
l-5 -5l-2 -2l-1 -1l-1 -1c-2 -2 -6 -8 -11 -17l-8 -20l-10 -16l-7 -8l-3 -6l-1 -1v-1l-2 -2c-1 -1 -1 -1 -2 -1l-1 1c-1 -1 -1 -1 -2 -1s-1 0 -1 1c-1 -1 -1 -1 -2 -1h-1c-1 1 -1 3 -1 4v1l2 7l6 14c3 5 4 9 4 11v1c-1 3 -1 5 -1 5c0 7 6 11 17 13l1 1v3c0 7 1 13 4 19
c1 3 3 8 6 14c5 12 11 19 17 22c1 5 3 8 4 11c0 1 0 1 1 1c0 1 1 3 2 4c1 2 3 5 5 8c4 4 7 8 8 12c1 1 1 2 1 5v4v3c0 5 1 9 2 12c0 5 4 12 13 19l2 2l2 3c-3 1 -6 5 -8 14c-1 2 -1 6 -2 11s-1 8 -2 10c-4 1 -8 3 -11 8v-2c0 -9 -2 -13 -6 -13c-5 0 -10 4 -16 12
c0 -6 -2 -11 -5 -14s-6 -5 -9 -5c-9 1 -14 7 -14 20c-7 -9 -12 -13 -15 -13c-1 0 -2 0 -3 1s-3 10 -4 25c-7 -9 -12 -13 -16 -13c-1 0 -2 0 -3 1c-3 2 -4 6 -4 13c0 0 0 1 1 4v3v3c-3 -3 -6 -4 -10 -4c-3 0 -7 1 -11 4c-2 3 -3 6 -3 7v2c1 3 4 6 9 9c-13 0 -21 2 -24 5
c3 2 6 3 10 4c5 1 9 2 11 3s4 2 5 3l-5 -1c-1 0 -2 0 -3 1c-2 1 -3 4 -3 9v1c-6 -8 -10 -12 -12 -12c-1 0 -2 1 -2 2l2 9v4l1 4l1 5c-5 -5 -9 -9 -12 -13c-3 -3 -4 -4 -4 -5v1v2c0 5 1 10 4 17c-8 -8 -14 -12 -18 -12c-2 0 -3 2 -3 5v4v3l1 4c-5 -11 -11 -17 -16 -19v3
c0 3 1 7 4 12c2 3 4 7 5 10l1 2v2l1 1v1l-2 -2l-2 -2c-2 -2 -4 -4 -6 -7c-4 -5 -7 -9 -10 -10c0 0 1 2 2 7v3l1 5c0 4 0 8 1 11c-4 -4 -8 -6 -11 -6h-2c-3 1 -5 4 -6 9c0 3 2 7 5 12c4 5 6 8 6 11c-9 -5 -14 -7 -16 -8c-1 -1 -3 -1 -6 -1s-5 1 -6 4c-1 1 -1 2 -1 4
c0 4 2 8 6 12c4 5 9 8 14 9l-4 -1h-4c-2 -1 -4 -1 -5 -1c-7 0 -11 2 -12 7v2c0 3 3 6 8 9l1 1h2l4 2l3 2l3 1c-11 5 -16 8 -16 11l1 1c1 1 8 3 22 7v1l-1 1c-1 1 -3 2 -4 3l-2 2l-2 2l-2 1c-2 3 -3 6 -3 8v4h3c3 0 7 -1 12 -3s9 -3 11 -3h2c-1 2 -4 7 -9 14c-2 3 -3 6 -3 7
c0 3 2 4 5 4c4 0 8 -3 13 -8c6 -7 10 -11 11 -12c-7 35 -12 52 -14 52l-1 -1c10 -5 20 -21 31 -46c-4 13 -7 28 -8 43v4v3c0 10 2 15 5 15h1l2 -1h-1v-1c0 -3 5 -15 14 -36v-2l1 -2c1 -1 1 -3 2 -4c1 -5 3 -9 5 -14c4 -8 7 -16 8 -23c-7 27 -10 52 -10 73s4 35 13 41
c5 -3 7 -10 7 -20v-5c0 -3 0 -6 -1 -7l-1 -3v-7c1 -6 2 -15 4 -26l2 -8l1 -8l1 -5v-4c0 46 6 79 19 99c4 -2 6 -8 6 -18c0 -6 -1 -13 -2 -22c-3 -29 -5 -44 -5 -47v-1v3l1 4l2 6l2 7l1 9l3 9c2 6 3 11 4 14c8 26 16 39 24 39c1 0 1 0 2 -1c-1 -10 -5 -24 -13 -42
c-8 -17 -13 -32 -14 -43c5 17 13 33 24 47c13 19 28 29 43 32c0 -9 -13 -24 -38 -45c-15 -24 -22 -47 -22 -70v-9l1 -4c1 -7 2 -12 5 -17c6 30 23 62 50 95c13 16 27 30 41 41h7c-17 -9 -34 -27 -50 -54c23 17 50 25 79 25l-1 -7c-51 -1 -82 -20 -93 -57
c-3 -8 -5 -18 -5 -30c0 -16 3 -35 10 -56l2 -1l2 -2c5 -5 12 -17 19 -36c0 3 2 6 5 9s7 4 10 4h2v-1l10 9c-5 -3 -8 -6 -9 -9h2h2c3 1 5 3 5 5l-2 -4l4 3l-5 -4l1 -1l5 3l-5 -4h1c2 1 4 3 6 5c-1 -2 -2 -4 -5 -5l11 1c1 -1 1 -1 1 -2l-1 -2h4v-2c1 0 2 -1 2 -2v-2
c3 0 4 -1 5 -3v-1c0 -1 -1 -2 -2 -3c-3 -3 -4 -5 -4 -6v-1l1 -2l2 -3l1 -3l1 -3c3 -3 5 -4 5 -5h1h2c3 0 7 -2 10 -6c4 -4 7 -10 8 -18c1 -1 1 -4 1 -7c0 -6 -1 -11 -4 -15v-4v-4c1 -3 1 -4 1 -5zM554 961l-203 -127l33 67l-77 63l231 145v-56l-54 -34zM447 996l-10 -7
l-3 -2l44 -37l7 15zM435 932l-39 32l-14 -9l45 -37zM393 522c1 15 -1 31 -6 46c-5 13 -13 24 -23 32c-13 9 -29 14 -48 14c-23 1 -44 -3 -63 -10l5 -169c21 -4 43 -3 65 2c19 5 35 13 46 25c15 15 23 35 24 60zM1899 501c5 29 -2 54 -20 75c-18 22 -42 34 -73 36
c-31 3 -59 -5 -84 -23c-25 -19 -39 -42 -44 -70c-5 -29 2 -54 21 -76c18 -21 42 -33 73 -36c30 -2 58 6 83 24s39 41 44 70zM540 278l5 132c-10 -22 -24 -42 -41 -60c-36 -37 -88 -62 -155 -77c-49 -11 -103 -15 -162 -14c-29 1 -54 2 -74 5l-43 483c64 23 135 36 214 39
c113 5 194 -35 241 -120c8 -15 15 -30 21 -47l6 -20l6 189l350 3l-3 -145l-179 8l-4 -64l108 4l-11 -134l-104 4l-5 -60l201 -3l122 397l193 -215l162 211l123 -322c-2 19 -1 38 2 57c6 35 19 68 39 99c19 30 44 56 73 78c63 46 133 66 210 60c37 -3 72 -12 104 -29
c31 -15 58 -36 79 -62c22 -26 37 -55 46 -87c9 -33 11 -67 5 -102c-5 -35 -18 -68 -38 -99c-19 -30 -44 -56 -74 -77c-63 -47 -132 -67 -209 -61c-37 3 -72 13 -105 29c-31 16 -57 37 -79 63c-2 3 -4 5 -7 8l6 -16l-177 -73l-64 168l-90 -117l-114 135l-47 -183l-165 56
l-5 -60z" />
    <glyph glyph-name="uni0000" horiz-adv-x="0" 
 />
    <glyph glyph-name="uni0000" horiz-adv-x="0" 
 />
    <glyph glyph-name="CR" horiz-adv-x="508" 
 />
    <glyph glyph-name="space" unicode=" " horiz-adv-x="490" 
 />
    <glyph glyph-name="space" unicode="&#xa0;" horiz-adv-x="490" 
 />
    <glyph glyph-name="exclam" unicode="!" horiz-adv-x="722" 
 />
    <glyph glyph-name="quotedbl" unicode="&#x22;" horiz-adv-x="917" 
 />
    <glyph glyph-name="numbersign" unicode="#" horiz-adv-x="1384" 
 />
    <glyph glyph-name="dollar" unicode="$" horiz-adv-x="1206" 
 />
    <glyph glyph-name="percent" unicode="%" horiz-adv-x="1766" 
 />
    <glyph glyph-name="ampersand" unicode="&#x26;" horiz-adv-x="1664" 
 />
    <glyph glyph-name="quotesingle" unicode="'" horiz-adv-x="461" 
 />
    <glyph glyph-name="parenleft" unicode="(" horiz-adv-x="1041" 
 />
    <glyph glyph-name="parenright" unicode=")" horiz-adv-x="950" 
 />
    <glyph glyph-name="asterisk" unicode="*" horiz-adv-x="734" 
 />
    <glyph glyph-name="plus" unicode="+" horiz-adv-x="905" 
 />
    <glyph glyph-name="comma" unicode="," horiz-adv-x="527" 
d="M84 334c51 49 110 74 178 73c62 -1 115 -23 159 -66c43 -43 67 -96 70 -159c9 -145 -26 -280 -104 -406l-6 -10l-6 -10l-12 -21c-11 -17 -26 -35 -43 -55c-13 -14 -26 -21 -40 -21s-24 7 -29 20c-3 7 0 19 9 34l5 9l5 9c4 6 7 10 8 13c5 12 9 23 12 32c4 13 6 24 7 35
c3 27 -4 47 -21 62c-11 11 -29 19 -53 26l-30 7c-13 3 -22 5 -28 7c-53 15 -94 46 -125 92c-30 45 -43 95 -39 151c4 70 32 129 83 178z" />
    <glyph glyph-name="hyphen" unicode="-" horiz-adv-x="759" 
 />
    <glyph glyph-name="hyphen" unicode="&#xad;" horiz-adv-x="759" 
 />
    <glyph glyph-name="period" unicode="." horiz-adv-x="587" 
d="M54 -22c-36 57 -46 119 -30 187c17 69 54 123 112 162c59 40 121 54 188 42s118 -47 154 -104s46 -119 30 -187c-17 -69 -54 -123 -112 -162c-59 -40 -121 -54 -188 -42s-118 47 -154 104z" />
    <glyph glyph-name="slash" unicode="/" horiz-adv-x="1592" 
 />
    <glyph glyph-name="zero" unicode="0" horiz-adv-x="1687" 
d="M1008 1087c-53 62 -119 96 -198 102s-149 -18 -208 -72c-59 -53 -90 -120 -95 -202c-4 -81 20 -153 73 -215c53 -61 120 -95 199 -102c79 -5 148 18 207 71c59 54 91 122 96 203c4 81 -21 153 -74 215zM1083 50c-101 -38 -206 -53 -314 -45c-108 9 -210 40 -306 93
c-93 53 -174 123 -243 210c-147 185 -213 399 -200 643c13 245 101 447 266 608c78 75 166 132 263 169c101 39 206 54 314 45c108 -8 210 -39 306 -93c93 -52 174 -122 243 -209c147 -185 213 -399 200 -644c-13 -244 -101 -446 -266 -607c-78 -75 -166 -132 -263 -170z
" />
    <glyph glyph-name="one" unicode="1" horiz-adv-x="982" 
d="M805 1789l122 -1765l-661 -14v1191l-263 -9l-3 488z" />
    <glyph glyph-name="two" unicode="2" horiz-adv-x="1591" 
d="M1511 -20l-1297 43c113 116 222 246 326 390c207 288 286 503 237 644c-25 57 -60 98 -105 124c-89 51 -183 -1 -281 -156l-391 314c48 71 114 142 197 214c166 144 338 219 516 225c47 1 102 -4 165 -16c126 -25 228 -70 307 -136c111 -93 167 -221 168 -384
c1 -205 -83 -459 -254 -763h437z" />
    <glyph glyph-name="three" unicode="3" horiz-adv-x="1460" 
d="M1138 1041c59 -53 108 -116 147 -190c57 -106 84 -213 83 -320c-1 -108 -32 -209 -91 -303c-63 -101 -152 -177 -266 -227c-114 -49 -243 -69 -387 -58c-91 7 -187 27 -287 62c-109 37 -196 84 -261 141l294 352c49 -30 102 -51 158 -64c81 -19 154 -19 217 -1
c61 16 97 44 106 83c25 107 -13 175 -114 204c-33 10 -71 15 -114 16h-23h-19c-12 -1 -21 -1 -28 -1l-34 353c8 3 13 4 14 4l3 1l29 3l29 3c24 3 44 6 60 9c46 9 80 25 102 46c20 21 32 48 35 83c3 36 -6 64 -25 85c-26 29 -67 37 -122 24c-22 -5 -45 -13 -69 -24
c-20 -9 -39 -20 -56 -31c-10 -7 -68 -54 -174 -142l-358 272c45 77 106 145 181 204c91 73 194 128 307 165c119 41 233 56 342 45c79 -8 156 -32 231 -72c68 -37 119 -70 154 -99c55 -45 91 -95 108 -150c33 -96 31 -184 -6 -265c-29 -67 -85 -136 -166 -208z" />
    <glyph glyph-name="four" unicode="4" horiz-adv-x="1602" 
d="M1547 890l-35 -549l-79 4l-3 -355l-558 23v362l-872 48l35 1298h558l-35 -842l314 3v804l570 -12l-5 -785z" />
    <glyph glyph-name="five" unicode="5" horiz-adv-x="1438" 
d="M782 1261v-125c274 -29 457 -120 548 -273c77 -130 87 -302 28 -516c-53 -190 -190 -306 -413 -349c-178 -33 -385 -17 -621 48c-4 1 -12 4 -23 7l-40 14l-110 44c-100 41 -147 70 -141 86l199 491c81 -49 165 -92 253 -127c78 -29 143 -46 194 -49c65 -3 109 15 130 56
c11 26 11 55 -2 87c-12 27 -34 52 -65 75c-39 27 -92 49 -159 66c-137 34 -265 45 -383 32l-24 845l1143 80v-457z" />
    <glyph glyph-name="six" unicode="6" horiz-adv-x="1561" 
d="M891 457c53 35 87 82 101 143c15 60 6 115 -26 165c-33 50 -79 80 -140 91c-60 11 -117 -1 -170 -36s-86 -83 -101 -143c-15 -61 -6 -116 26 -166c33 -50 79 -80 140 -91c60 -11 117 2 170 37zM1307 1097c100 -99 165 -221 195 -368c37 -182 13 -352 -72 -511
s-212 -269 -380 -330c-91 -33 -189 -45 -296 -34c-106 11 -211 42 -314 95c-104 53 -192 120 -264 200c-71 80 -118 164 -141 252c-70 277 12 572 246 887c190 255 432 471 725 648l265 -417c-111 -66 -218 -146 -322 -239c140 -24 259 -85 358 -183z" />
    <glyph glyph-name="seven" unicode="7" horiz-adv-x="1479" 
d="M12 1212l-12 540l1424 37l-454 -1829l-688 98l381 1154h-651z" />
    <glyph glyph-name="eight" unicode="8" horiz-adv-x="1550" 
d="M618 441c43 -29 96 -42 157 -38c61 3 113 21 156 54c43 34 64 73 63 117c-1 45 -23 82 -67 111c-43 29 -96 41 -157 38s-113 -21 -156 -54c-43 -34 -64 -73 -63 -117c1 -45 23 -82 67 -111zM878 1383c-31 15 -67 21 -108 16s-76 -20 -103 -43c-27 -22 -40 -47 -37 -74
s19 -49 50 -64s67 -20 108 -15s76 18 103 41s40 48 37 75c-2 27 -19 48 -50 64zM1357 1336c-3 -101 -39 -194 -108 -278c90 -60 159 -134 208 -222c51 -91 74 -187 70 -289c-7 -177 -86 -329 -239 -455c-153 -125 -334 -188 -543 -188s-386 63 -529 188
c-144 126 -213 278 -206 455c4 91 29 178 75 261c45 80 107 150 185 210c-85 93 -126 199 -121 318c5 140 69 260 190 360c122 99 266 149 433 149s307 -50 422 -149c114 -100 168 -220 163 -360z" />
    <glyph glyph-name="nine" unicode="9" horiz-adv-x="1607" 
d="M667 1349c-53 -35 -87 -82 -102 -143c-14 -60 -5 -115 27 -165c33 -50 79 -80 139 -91c61 -11 118 1 171 36s86 83 101 143c15 61 6 116 -26 166c-33 50 -79 80 -140 91c-60 11 -117 -2 -170 -37zM251 709c-100 99 -165 221 -195 368c-37 182 -13 352 72 511
s212 269 380 330c91 33 189 45 296 34c106 -11 211 -42 314 -95c104 -53 192 -120 263 -200c72 -80 119 -164 141 -252c71 -277 -11 -572 -245 -887c-190 -255 -432 -471 -725 -648l-265 417c110 66 217 146 322 239c-140 24 -259 85 -358 183z" />
    <glyph glyph-name="colon" unicode=":" horiz-adv-x="587" 
 />
    <glyph glyph-name="semicolon" unicode=";" horiz-adv-x="587" 
 />
    <glyph glyph-name="semicolon" unicode="&#x37e;" horiz-adv-x="587" 
 />
    <glyph glyph-name="less" unicode="&#x3c;" horiz-adv-x="1106" 
 />
    <glyph glyph-name="equal" unicode="=" horiz-adv-x="1001" 
 />
    <glyph glyph-name="greater" unicode="&#x3e;" horiz-adv-x="1106" 
 />
    <glyph glyph-name="question" unicode="?" horiz-adv-x="1350" 
 />
    <glyph glyph-name="at" unicode="@" horiz-adv-x="2490" 
 />
    <glyph glyph-name="A" unicode="A" horiz-adv-x="1909" 
d="M776 553l233 17l-102 252zM1271 -70l-110 268l-574 -32l-134 -276l-453 274l935 1656l919 -1676z" />
    <glyph glyph-name="B" unicode="B" horiz-adv-x="1596" 
d="M836 369l14 8c25 15 45 33 59 52c16 23 22 48 18 74c-11 57 -53 99 -127 127c-28 11 -60 19 -97 24c-27 5 -57 8 -89 10l19 -306c0 -3 18 -6 55 -8c13 -1 26 -1 39 -2h23c33 1 61 8 86 21zM576 1328l18 -293c59 2 108 18 147 49c36 29 56 62 59 101c3 40 -14 73 -49 99
c-40 30 -98 45 -175 44zM1188 998c178 -61 282 -181 311 -359c28 -169 -7 -309 -106 -420c-92 -104 -221 -163 -386 -178c-75 -7 -163 -10 -262 -11h-131l-131 1l-1 1h-398l-84 1640l546 16c128 0 246 -8 353 -23c134 -19 241 -48 321 -89c208 -105 222 -273 41 -503
c-19 -25 -44 -50 -73 -75z" />
    <glyph glyph-name="C" unicode="C" horiz-adv-x="1671" 
d="M1290 547l169 -374c-98 -65 -205 -109 -321 -133c-121 -25 -243 -27 -366 -4c-121 23 -234 66 -337 131c-99 63 -183 142 -251 235c-69 94 -116 196 -143 306c-27 114 -30 229 -9 345c21 115 65 221 131 318c65 93 145 172 242 235c206 134 433 178 681 133
c212 -39 389 -137 530 -294l-255 -332c-60 55 -131 90 -213 105c-109 20 -209 2 -298 -53c-90 -55 -144 -131 -162 -229s5 -189 69 -272c65 -84 151 -136 260 -156c97 -18 188 -5 273 39z" />
    <glyph glyph-name="D" unicode="D" horiz-adv-x="1657" 
d="M940 676c50 47 80 112 89 196c7 51 2 102 -15 153c-15 45 -38 81 -70 108c-39 33 -91 52 -155 55c-75 5 -145 -3 -209 -23l-9 -558c69 -17 141 -18 214 -5c63 12 115 37 155 74zM1577 1026c8 -54 11 -99 10 -135c10 -257 -63 -458 -219 -603
c-125 -115 -300 -192 -525 -231c-161 -27 -339 -34 -534 -20c-97 7 -178 16 -243 29l-66 1596c215 67 452 99 711 97c375 0 633 -145 775 -434c25 -50 45 -103 61 -160c13 -45 23 -91 30 -139z" />
    <glyph glyph-name="E" unicode="E" horiz-adv-x="1282" 
d="M1215 1745l-12 -478l-589 24l-13 -209l356 13l-36 -442l-344 12l-15 -196l665 -13l-36 -466l-1191 61l61 1682z" />
    <glyph glyph-name="F" unicode="F" horiz-adv-x="1258" 
d="M1190 1142l-551 12l7 -213h375l-9 -421l-353 14l18 -546l-602 -38l-75 1693l1203 25z" />
    <glyph glyph-name="G" unicode="G" horiz-adv-x="1779" 
d="M1702 1056l29 -828c-157 -162 -351 -260 -582 -295c-132 -21 -262 -17 -391 12c-124 27 -238 76 -341 145s-188 154 -255 253c-69 104 -114 217 -134 339c-19 122 -13 242 20 361c32 115 86 221 163 318c161 204 377 327 646 368c134 21 266 17 395 -12
c125 -29 240 -78 344 -149l-193 -388c-91 47 -189 63 -294 47c-119 -18 -214 -70 -286 -156c-71 -86 -99 -181 -82 -284s73 -185 169 -245c95 -60 202 -81 321 -64l1 1l26 199l-268 3l35 379z" />
    <glyph glyph-name="H" unicode="H" horiz-adv-x="1612" 
d="M949 1662l608 -34l-102 -1658l-549 22l16 636l-322 -14l9 -560l-609 8l34 1661h549l10 -677l341 24z" />
    <glyph glyph-name="I" unicode="I" horiz-adv-x="713" 
d="M108 1648l550 -23l-48 -1675l-610 36z" />
    <glyph glyph-name="J" unicode="J" horiz-adv-x="1046" 
d="M956 1732l35 -1043c-7 -167 -58 -309 -151 -428c-75 -95 -175 -173 -300 -233c-143 -69 -286 -107 -427 -115l-113 473c191 51 318 142 381 273c31 65 43 126 36 181l-48 833z" />
    <glyph glyph-name="K" unicode="K" horiz-adv-x="1676" 
d="M1621 337l-516 -407l-503 545l-5 -457l-560 18l-37 1652l594 -6l-2 -493l562 515l439 -341l-595 -497z" />
    <glyph glyph-name="L" unicode="L" horiz-adv-x="1265" 
d="M54 1643l627 -8l-47 -1142l553 -17l-9 -532l-1161 -11z" />
    <glyph glyph-name="M" unicode="M" horiz-adv-x="2353" 
d="M2240 219l-584 -243l-212 556l-296 -387l-376 446l-154 -603l-605 205l479 1558l637 -708l533 696z" />
    <glyph glyph-name="N" unicode="N" horiz-adv-x="1798" 
d="M632 24l-632 55l131 1573l957 -687l-8 722l663 6l-98 -1743l-988 608z" />
    <glyph glyph-name="O" unicode="O" horiz-adv-x="1897" 
d="M1155 533c81 60 130 137 146 231c15 93 -7 176 -66 247c-61 72 -141 112 -242 120c-101 7 -192 -19 -275 -79c-81 -61 -130 -138 -146 -231c-15 -94 7 -177 67 -248c60 -72 140 -112 241 -119c101 -8 192 18 275 79zM398 1439c207 152 437 218 690 199
c124 -10 239 -42 345 -96c102 -51 189 -120 261 -205c71 -85 122 -181 152 -286c30 -110 35 -222 16 -337c-19 -116 -62 -225 -128 -326c-63 -99 -143 -184 -241 -256c-207 -152 -437 -218 -690 -199c-125 10 -240 42 -346 96c-103 51 -190 120 -261 205s-122 181 -151 286
c-31 109 -36 222 -17 337c20 116 62 225 127 326c64 99 145 184 243 256z" />
    <glyph glyph-name="P" unicode="P" horiz-adv-x="1453" 
d="M715 921c85 33 128 100 129 203c0 57 -14 105 -42 144c-23 31 -54 56 -93 75c-45 21 -90 32 -135 33l13 -473c43 -4 85 2 128 18zM36 10l-36 1698c224 41 450 50 677 29c198 -18 355 -63 472 -135c145 -89 221 -219 229 -388c13 -306 -94 -523 -322 -650
c-82 -45 -172 -75 -269 -88c-81 -11 -145 -9 -191 6l15 -430z" />
    <glyph glyph-name="Q" unicode="Q" horiz-adv-x="1886" 
d="M1843 1105c30 -109 35 -222 16 -337c-33 -199 -130 -372 -291 -517l96 -157l-442 -314l-115 232c-102 -23 -204 -31 -305 -23c-124 9 -239 41 -345 94c-103 52 -190 121 -261 206s-122 181 -151 286c-31 109 -36 221 -17 337c20 115 62 223 127 325
c64 98 145 183 242 255c207 152 436 218 689 199c124 -11 239 -43 345 -96c102 -51 189 -119 260 -204s122 -181 152 -286zM1204 845l68 -112c13 28 22 56 27 85c15 93 -7 176 -66 247c-61 71 -141 111 -241 120c-101 7 -192 -19 -275 -79c-81 -61 -130 -138 -146 -231
c-15 -90 6 -170 62 -241c56 -70 132 -111 228 -124l-85 172z" />
    <glyph glyph-name="R" unicode="R" horiz-adv-x="1528" 
d="M1473 260l-468 -350l-444 686v-556l-561 16l62 1664c213 51 428 64 645 40c190 -21 341 -75 453 -162c141 -108 216 -265 227 -470c7 -57 2 -121 -16 -190c-16 -61 -41 -114 -75 -160c-43 -57 -99 -102 -168 -133zM681 987c81 28 123 86 126 174c1 48 -11 89 -36 122
c-21 27 -50 48 -87 64c-43 19 -86 28 -129 29l4 -404c40 -4 81 1 122 15z" />
    <glyph glyph-name="S" unicode="S" horiz-adv-x="1316" 
d="M1074 793c27 -19 47 -34 59 -45c87 -76 139 -167 155 -274c16 -103 -4 -202 -59 -299c-57 -99 -127 -174 -212 -223c-95 -55 -212 -83 -352 -82c-76 1 -167 19 -272 55c-83 29 -196 92 -339 189l296 360c57 -111 128 -165 212 -160c58 -1 84 31 78 94
c-4 40 -21 78 -52 115c-27 31 -79 72 -158 123s-130 86 -154 104c-147 107 -230 232 -250 375c-17 125 8 240 76 345c66 100 159 172 278 215c154 56 317 68 490 37c113 -20 257 -80 433 -179l-257 -400c-41 73 -98 129 -171 167c-72 38 -133 28 -184 -31
c-62 -71 -25 -165 110 -284c45 -39 99 -81 163 -126c64 -44 101 -69 110 -76z" />
    <glyph glyph-name="T" unicode="T" horiz-adv-x="1479" 
d="M1424 1702v-491l-393 9l-9 -1220h-573l37 1233l-486 11v474z" />
    <glyph glyph-name="U" unicode="U" horiz-adv-x="1698" 
d="M953 1629l565 149c31 -91 57 -184 80 -277c30 -126 51 -247 63 -362c31 -310 -5 -565 -108 -766c-56 -109 -130 -199 -222 -270c-121 -93 -267 -150 -440 -169c-5 -1 -11 -1 -17 -1c-8 -1 -16 -1 -24 -2c-22 -1 -44 -2 -67 -1c-63 3 -125 12 -185 27
c-179 47 -321 148 -426 302c-215 314 -221 790 -19 1428l600 -43l-25 -70l-25 -69c-19 -53 -34 -100 -47 -142c-33 -107 -56 -203 -68 -289c-26 -179 -14 -315 36 -407c19 -35 42 -62 71 -82c22 -15 46 -26 72 -32c43 -9 87 -6 133 8c45 15 84 39 116 72c11 11 24 32 39 61
c50 97 58 252 23 467c-14 83 -33 170 -58 259c-21 78 -44 148 -67 209zM1137 -69l-7 -1l4 1h3zM1235 29l-7 -1c4 1 6 1 7 1zM1235 29c-1 0 -3 0 -7 -1c4 1 6 1 7 1z" />
    <glyph glyph-name="V" unicode="V" horiz-adv-x="2093" 
d="M0 1378l516 337l517 -624l340 650l665 -176l-995 -1645z" />
    <glyph glyph-name="W" unicode="W" horiz-adv-x="2332" 
d="M1651 1787l626 -170l-561 -1659l-571 816l-614 -854l-531 1599l639 234l163 -584l381 469l274 -397z" />
    <glyph glyph-name="X" unicode="X" horiz-adv-x="1908" 
d="M1853 247l-628 -214l-279 317l-319 -440l-601 283l488 648l-514 584l577 331l331 -392l296 393l643 -163l-523 -722z" />
    <glyph glyph-name="Y" unicode="Y" horiz-adv-x="1958" 
d="M970 1101l478 614l455 -405l-651 -663l-12 -687h-639v712l-601 638l466 442z" />
    <glyph glyph-name="Z" unicode="Z" horiz-adv-x="1720" 
d="M1567 561l-71 -631l-1496 170l711 940l-649 10l11 613l1592 -141l-631 -924z" />
    <glyph glyph-name="bracketleft" unicode="[" horiz-adv-x="951" 
 />
    <glyph glyph-name="backslash" unicode="\" horiz-adv-x="1592" 
 />
    <glyph glyph-name="bracketright" unicode="]" horiz-adv-x="951" 
 />
    <glyph glyph-name="asciicircum" unicode="^" horiz-adv-x="855" 
 />
    <glyph glyph-name="underscore" unicode="_" horiz-adv-x="860" 
 />
    <glyph glyph-name="grave" unicode="`" horiz-adv-x="739" 
 />
    <glyph glyph-name="a" unicode="a" horiz-adv-x="1909" 
d="M854 568l233 -10l-139 265zM713 191l-101 -271l-590 196l867 1703l986 -1626l-445 -288l-142 272z" />
    <glyph glyph-name="b" unicode="b" horiz-adv-x="1596" 
d="M810 315l14 8c26 14 47 30 62 48c17 23 25 47 22 73c-8 57 -48 102 -120 134c-27 12 -59 22 -96 29c-27 6 -56 11 -88 15l3 -307c-1 -3 17 -7 54 -11c13 -1 26 -3 39 -4c12 -1 20 -1 23 -1c33 -1 62 5 87 16zM601 1287l3 -294c59 -1 108 13 149 41c37 27 59 59 64 98
c5 40 -10 74 -43 102c-39 32 -96 50 -173 53zM1195 925c175 -71 272 -196 291 -375c19 -171 -23 -309 -128 -414c-97 -99 -229 -151 -395 -157c-75 -3 -163 -2 -262 3l-131 7l-131 8l-1 1l-397 21l3 1642l546 -13c128 -7 245 -21 352 -42c133 -25 238 -61 315 -106
c203 -116 208 -284 15 -504c-21 -24 -46 -48 -77 -71z" />
    <glyph glyph-name="c" unicode="c" horiz-adv-x="1671" 
d="M1315 554l196 -360c-93 -72 -196 -124 -310 -157c-118 -35 -239 -45 -364 -32c-123 13 -238 48 -346 105c-104 56 -193 128 -268 215c-76 89 -131 187 -166 295c-36 111 -48 226 -35 343s48 226 106 327c57 98 132 182 224 253c195 149 418 211 669 184
c214 -23 397 -107 550 -253l-229 -350c-64 50 -137 79 -220 88c-111 12 -208 -13 -293 -75c-85 -61 -133 -142 -144 -241s19 -188 89 -266c71 -79 161 -124 271 -136c99 -11 189 9 270 60z" />
    <glyph glyph-name="d" unicode="d" horiz-adv-x="1657" 
d="M929 639c53 45 86 109 99 192c9 50 6 101 -8 153c-13 45 -34 83 -65 112c-37 35 -88 55 -152 62c-75 8 -145 4 -210 -13l-35 -557c68 -20 139 -25 213 -15c64 9 117 31 158 66zM1582 958c6 -54 7 -99 4 -135c-3 -257 -85 -455 -248 -592c-131 -109 -309 -178 -535 -205
c-162 -20 -340 -18 -534 5c-97 11 -178 25 -242 41l11 1597c218 57 456 78 714 63c375 -18 626 -175 754 -471c22 -51 40 -105 53 -162c11 -45 18 -92 23 -141z" />
    <glyph glyph-name="e" unicode="e" horiz-adv-x="1282" 
d="M1187 446l14 -468l-1173 -14l4 1743l1192 35l18 -487l-665 13l8 -197l344 -1l19 -443l-355 27l5 -210z" />
    <glyph glyph-name="f" unicode="f" horiz-adv-x="1258" 
d="M1203 1177l-550 35l-1 -213l374 -16l-27 -420l-352 29l-5 -546l-613 -33l7 1715l1203 -26z" />
    <glyph glyph-name="g" unicode="g" horiz-adv-x="1779" 
d="M1702 1056l29 -828c-157 -162 -351 -260 -582 -295c-132 -21 -262 -17 -391 12c-124 27 -238 76 -341 145s-188 154 -255 253c-69 104 -114 217 -134 339c-19 122 -13 242 20 361c32 115 86 221 163 318c161 204 377 327 646 368c134 21 266 17 395 -12
c125 -29 240 -78 344 -149l-193 -388c-91 47 -189 63 -294 47c-119 -18 -214 -70 -286 -156c-71 -86 -99 -181 -82 -284s73 -185 169 -245c95 -60 202 -81 321 -64l1 1l26 199l-268 3l35 379z" />
    <glyph glyph-name="h" unicode="h" horiz-adv-x="1612" 
d="M31 1657l608 11l-7 -592l340 -37l35 676l549 -21l-30 -1661l-608 15l30 559l-321 27l-9 -636l-579 19z" />
    <glyph glyph-name="i" unicode="i" horiz-adv-x="713" 
d="M593 9l-550 2l-18 1675l611 -12z" />
    <glyph glyph-name="j" unicode="j" horiz-adv-x="1046" 
d="M1017 1656l-36 -1043c-19 -166 -79 -305 -180 -417c-81 -90 -186 -161 -315 -212c-148 -59 -293 -87 -434 -86l-81 480c195 37 328 119 399 246c35 63 51 123 48 178l9 835z" />
    <glyph glyph-name="k" unicode="k" horiz-adv-x="1676" 
d="M1621 337l-516 -437l-503 575l5 -427l-560 28l-47 1592l584 64l8 -543l592 545l409 -371l-595 -497z" />
    <glyph glyph-name="l" unicode="l" horiz-adv-x="1265" 
d="M0 1710l647 17l-59 -1172l610 34l12 -532l-1159 -27z" />
    <glyph glyph-name="m" unicode="m" horiz-adv-x="2353" 
d="M597 -24l-584 243l578 1520l573 -686l597 698l479 -1558l-605 -205l-154 603l-336 -436l-336 377z" />
    <glyph glyph-name="n" unicode="n" horiz-adv-x="1798" 
d="M704 -44l-634 -2l-11 1578l990 -572l-48 692l663 36l56 -1715l-1035 477z" />
    <glyph glyph-name="o" unicode="o" horiz-adv-x="1875" 
d="M734 1082c-81 -61 -130 -140 -146 -236c-15 -95 7 -180 66 -253c61 -73 141 -113 241 -122c101 -8 192 19 274 81c82 61 131 140 147 236c15 95 -7 180 -68 253c-59 73 -139 114 -240 122c-100 8 -191 -19 -274 -81zM1489 156c-206 -155 -435 -223 -688 -203
c-124 10 -239 43 -345 98c-101 53 -188 122 -259 209s-122 185 -152 293c-31 112 -36 227 -17 344c19 119 62 230 128 333c63 101 144 188 241 262c206 155 435 223 688 203c124 -10 239 -43 345 -98c103 -53 189 -122 260 -209s122 -185 151 -293c31 -111 36 -226 17 -344
c-19 -119 -62 -230 -127 -333c-64 -101 -145 -188 -242 -262z" />
    <glyph glyph-name="p" unicode="p" horiz-adv-x="1453" 
d="M747 839c87 28 134 93 141 195c3 57 -8 106 -33 147c-21 33 -50 59 -89 80c-44 24 -88 38 -132 41l-15 -473c42 -7 85 -3 128 10zM16 -30l64 1697c226 27 452 24 678 -11c197 -29 351 -83 463 -162c139 -98 208 -232 206 -401c-5 -307 -125 -517 -360 -630
c-85 -41 -176 -65 -274 -72c-82 -6 -145 0 -190 17l-11 -430z" />
    <glyph glyph-name="q" unicode="q" horiz-adv-x="1886" 
d="M1843 1105c30 -109 35 -222 16 -337c-33 -199 -130 -372 -291 -517l96 -157l-442 -314l-115 232c-102 -23 -204 -31 -305 -23c-124 9 -239 41 -345 94c-103 52 -190 121 -261 206s-122 181 -151 286c-31 109 -36 221 -17 337c20 115 62 223 127 325
c64 98 145 183 242 255c207 152 436 218 689 199c124 -11 239 -43 345 -96c102 -51 189 -119 260 -204s122 -181 152 -286zM1204 845l68 -112c13 28 22 56 27 85c15 93 -7 176 -66 247c-61 71 -141 111 -241 120c-101 7 -192 -19 -275 -79c-81 -61 -130 -138 -146 -231
c-15 -90 6 -170 62 -241c56 -70 132 -111 228 -124l-85 172z" />
    <glyph glyph-name="r" unicode="r" horiz-adv-x="1528" 
d="M1499 245l-451 -372l-475 665l25 -555l-561 -10l-15 1665c211 61 425 84 643 70c191 -13 344 -60 460 -141c145 -101 228 -254 248 -459c10 -57 8 -121 -7 -191c-13 -61 -36 -116 -68 -163c-40 -59 -94 -106 -161 -141zM674 934c80 32 119 92 118 180
c-1 48 -14 88 -41 120c-23 26 -53 46 -90 60c-44 17 -88 24 -131 23l23 -403c40 -3 80 4 121 20z" />
    <glyph glyph-name="s" unicode="s" horiz-adv-x="1373" 
d="M775 1749c85 -6 174 -25 267 -57l-132 -383c-137 47 -227 40 -268 -19c-55 -77 -8 -167 139 -271c48 -35 115 -76 202 -124l25 -14l22 -12c19 -10 33 -18 43 -23c29 -17 50 -30 63 -39c95 -67 156 -152 183 -256c26 -101 17 -202 -28 -304c-47 -105 -109 -186 -188 -244
c-89 -65 -203 -104 -342 -117c-76 -7 -168 2 -276 27c-86 19 -180 48 -281 87l215 380c75 -48 139 -69 194 -63c57 5 80 39 68 101c-8 39 -29 76 -64 109c-29 28 -78 60 -147 96l-46 23l-46 24c-37 19 -69 36 -94 51c-157 92 -253 208 -288 348c-30 123 -16 240 41 351
c55 106 140 187 254 242c147 71 309 100 484 87z" />
    <glyph glyph-name="t" unicode="t" horiz-adv-x="1479" 
d="M-13 1184l-19 490l1423 71l18 -474l-485 -30l34 -1232l-573 -22l-6 1221z" />
    <glyph glyph-name="u" unicode="u" horiz-adv-x="1698" 
d="M141 1744l568 -138c-22 -61 -43 -131 -63 -210c-23 -90 -40 -177 -52 -260c-31 -215 -20 -371 32 -466c16 -29 30 -50 41 -61c33 -33 72 -56 117 -69c47 -13 91 -15 133 -5c26 6 50 17 72 33c28 21 51 49 69 84c48 93 57 228 27 407c-13 86 -38 182 -74 288
c-13 41 -30 88 -50 141l-26 68l-26 70l599 55c215 -633 218 -1109 10 -1428c-102 -156 -242 -260 -419 -311c-60 -17 -122 -27 -185 -31c-23 -1 -45 -1 -67 0c-8 1 -16 1 -24 1c-6 0 -12 0 -17 1c-173 16 -320 69 -443 160c-93 69 -169 158 -228 265
c-107 199 -149 453 -124 764c10 115 29 236 56 363c21 94 45 187 74 279zM1137 -69l-7 -1l4 1h3zM1235 29l-7 -1c4 1 6 1 7 1zM1235 29c-1 0 -3 0 -7 -1c4 1 6 1 7 1z" />
    <glyph glyph-name="v" unicode="v" horiz-adv-x="2093" 
d="M1519 1778l550 -291l-1001 -1538l-1072 1596l656 207l401 -631z" />
    <glyph glyph-name="w" unicode="w" horiz-adv-x="2332" 
d="M0 1553l626 170l194 -546l284 357l371 -429l163 584l639 -234l-531 -1599l-604 814l-581 -776z" />
    <glyph glyph-name="x" unicode="x" horiz-adv-x="1908" 
d="M678 13l-636 190l506 644l-549 703l636 186l311 -382l316 404l589 -309l-493 -603l512 -630l-590 -304l-335 428z" />
    <glyph glyph-name="y" unicode="y" horiz-adv-x="1958" 
d="M977 1112l445 638l476 -381l-615 -696l24 -687l-639 -33l-37 711l-633 606l442 465z" />
    <glyph glyph-name="z" unicode="z" horiz-adv-x="1720" 
d="M1587 636l-7 -635l-1506 19l593 987l-627 -36l-50 611l1598 50l-505 -1013z" />
    <glyph glyph-name="braceleft" unicode="{" horiz-adv-x="878" 
 />
    <glyph glyph-name="bar" unicode="|" horiz-adv-x="619" 
 />
    <glyph glyph-name="braceright" unicode="}" horiz-adv-x="878" 
 />
    <glyph glyph-name="asciitilde" unicode="~" horiz-adv-x="1182" 
 />
    <glyph glyph-name="exclamdown" unicode="&#xa1;" horiz-adv-x="722" 
 />
    <glyph glyph-name="cent" unicode="&#xa2;" horiz-adv-x="1136" 
 />
    <glyph glyph-name="sterling" unicode="&#xa3;" horiz-adv-x="1307" 
 />
    <glyph glyph-name="currency" unicode="&#xa4;" 
 />
    <glyph glyph-name="yen" unicode="&#xa5;" 
 />
    <glyph glyph-name="brokenbar" unicode="&#xa6;" 
 />
    <glyph glyph-name="section" unicode="&#xa7;" 
 />
    <glyph glyph-name="dieresis" unicode="&#xa8;" horiz-adv-x="1065" 
d="M58 2171c39 35 85 53 140 53s101 -18 140 -53c39 -36 58 -79 58 -130s-19 -94 -58 -129c-39 -36 -85 -54 -140 -54s-101 18 -140 54c-39 35 -58 78 -58 129s19 94 58 130zM672 2171c39 35 85 53 140 53s101 -18 140 -53c39 -36 58 -79 58 -130s-19 -94 -58 -129
c-39 -36 -85 -54 -140 -54s-101 18 -140 54c-39 35 -58 78 -58 129s19 94 58 130z" />
    <glyph glyph-name="copyright" unicode="&#xa9;" 
 />
    <glyph glyph-name="ordfeminine" unicode="&#xaa;" 
 />
    <glyph glyph-name="guillemotleft" unicode="&#xab;" 
 />
    <glyph glyph-name="logicalnot" unicode="&#xac;" 
 />
    <glyph glyph-name="registered" unicode="&#xae;" 
 />
    <glyph glyph-name="overscore" unicode="&#xaf;" 
 />
    <glyph glyph-name="degree" unicode="&#xb0;" 
 />
    <glyph glyph-name="plusminus" unicode="&#xb1;" 
 />
    <glyph glyph-name="uni00B2" unicode="&#xb2;" 
 />
    <glyph glyph-name="uni00B3" unicode="&#xb3;" 
 />
    <glyph glyph-name="acute" unicode="&#xb4;" horiz-adv-x="908" 
 />
    <glyph glyph-name="mu" unicode="&#xb5;" 
 />
    <glyph glyph-name="paragraph" unicode="&#xb6;" 
 />
    <glyph glyph-name="middot" unicode="&#xb7;" 
 />
    <glyph glyph-name="middot" unicode="&#x2219;" 
 />
    <glyph glyph-name="cedilla" unicode="&#xb8;" horiz-adv-x="830" 
 />
    <glyph glyph-name="uni00B9" unicode="&#xb9;" 
 />
    <glyph glyph-name="ordmasculine" unicode="&#xba;" 
 />
    <glyph glyph-name="guillemotright" unicode="&#xbb;" 
 />
    <glyph glyph-name="onequarter" unicode="&#xbc;" 
 />
    <glyph glyph-name="onehalf" unicode="&#xbd;" 
 />
    <glyph glyph-name="threequarters" unicode="&#xbe;" 
 />
    <glyph glyph-name="questiondown" unicode="&#xbf;" horiz-adv-x="1350" 
 />
    <glyph glyph-name="Agrave" unicode="&#xc0;" horiz-adv-x="1909" 
 />
    <glyph glyph-name="Aacute" unicode="&#xc1;" horiz-adv-x="1909" 
 />
    <glyph glyph-name="Acircumflex" unicode="&#xc2;" horiz-adv-x="1909" 
 />
    <glyph glyph-name="Atilde" unicode="&#xc3;" horiz-adv-x="1909" 
 />
    <glyph glyph-name="Adieresis" unicode="&#xc4;" horiz-adv-x="1909" 
 />
    <glyph glyph-name="Aring" unicode="&#xc5;" horiz-adv-x="1909" 
 />
    <glyph glyph-name="AE" unicode="&#xc6;" horiz-adv-x="2605" 
d="M1885 460l665 37l-3 -468l-1192 -26l-7 198l-546 -7l-258 -314l-544 319l1294 1486l1149 96l23 -478l-589 -19l3 -209l354 39l-5 -444l-343 -13zM1326 799l-201 -232c69 0 139 -3 210 -8z" />
    <glyph glyph-name="Ccedilla" unicode="&#xc7;" horiz-adv-x="1699" 
 />
    <glyph glyph-name="Egrave" unicode="&#xc8;" horiz-adv-x="1282" 
 />
    <glyph glyph-name="Eacute" unicode="&#xc9;" horiz-adv-x="1282" 
 />
    <glyph glyph-name="Ecircumflex" unicode="&#xca;" horiz-adv-x="1282" 
 />
    <glyph glyph-name="Edieresis" unicode="&#xcb;" horiz-adv-x="1282" 
 />
    <glyph glyph-name="Igrave" unicode="&#xcc;" horiz-adv-x="713" 
 />
    <glyph glyph-name="Iacute" unicode="&#xcd;" horiz-adv-x="713" 
 />
    <glyph glyph-name="Icircumflex" unicode="&#xce;" horiz-adv-x="713" 
 />
    <glyph glyph-name="Idieresis" unicode="&#xcf;" horiz-adv-x="713" 
 />
    <glyph glyph-name="Eth" unicode="&#xd0;" horiz-adv-x="1635" 
 />
    <glyph glyph-name="Ntilde" unicode="&#xd1;" horiz-adv-x="1798" 
 />
    <glyph glyph-name="Ograve" unicode="&#xd2;" horiz-adv-x="1835" 
 />
    <glyph glyph-name="Oacute" unicode="&#xd3;" horiz-adv-x="1835" 
 />
    <glyph glyph-name="Ocircumflex" unicode="&#xd4;" horiz-adv-x="1835" 
 />
    <glyph glyph-name="Otilde" unicode="&#xd5;" horiz-adv-x="1835" 
 />
    <glyph glyph-name="Odieresis" unicode="&#xd6;" horiz-adv-x="1835" 
 />
    <glyph glyph-name="multiply" unicode="&#xd7;" 
 />
    <glyph glyph-name="Oslash" unicode="&#xd8;" horiz-adv-x="1892" 
d="M1477 1663l-53 -109c155 -78 272 -191 350 -338c81 -150 106 -311 77 -484c-19 -115 -61 -223 -125 -324c-63 -97 -144 -181 -241 -253c-205 -151 -432 -217 -683 -197c-49 5 -97 12 -144 23l-104 -201l-127 72l89 174c-171 72 -302 185 -391 339
c-91 156 -121 326 -91 509c19 114 62 222 127 323c63 97 142 182 239 253c205 151 433 216 684 197c65 -5 129 -17 190 -35l67 117zM1157 558c77 59 124 134 139 223c9 56 4 110 -16 161c-19 49 -50 91 -93 126l-290 -595c97 -3 183 26 260 85zM719 1067
c-82 -61 -130 -137 -145 -229c-12 -69 -2 -134 31 -195c32 -59 79 -103 142 -134l300 627c-21 5 -40 8 -57 9c-99 8 -190 -18 -271 -78z" />
    <glyph glyph-name="Ugrave" unicode="&#xd9;" horiz-adv-x="1698" 
 />
    <glyph glyph-name="Uacute" unicode="&#xda;" horiz-adv-x="1698" 
 />
    <glyph glyph-name="Ucircumflex" unicode="&#xdb;" horiz-adv-x="1698" 
 />
    <glyph glyph-name="Udieresis" unicode="&#xdc;" horiz-adv-x="1698" 
 />
    <glyph glyph-name="Yacute" unicode="&#xdd;" horiz-adv-x="1958" 
 />
    <glyph glyph-name="Thorn" unicode="&#xde;" horiz-adv-x="1476" 
 />
    <glyph glyph-name="Ydieresis.001" unicode="&#x178;" horiz-adv-x="1958" 
 />
    <glyph glyph-name="germandbls" unicode="&#xdf;" horiz-adv-x="1607" 
d="M1331 981c65 -54 119 -117 161 -188c60 -102 91 -206 94 -312s-23 -207 -78 -302c-53 -92 -148 -166 -286 -221c-126 -51 -260 -77 -402 -78l-34 456c71 -3 136 5 196 24c65 21 100 49 107 84c23 113 -24 184 -141 212c-37 9 -79 13 -126 12c-8 0 -16 0 -25 -1
c-6 0 -12 0 -19 -1c-13 -1 -20 -1 -20 -1l-21 333c0 -2 21 2 62 11c15 4 30 8 45 11c13 4 22 6 25 7c87 27 122 80 103 157c-7 29 -24 53 -50 71c-27 19 -58 26 -93 19c-111 -21 -182 -55 -211 -104c-22 -37 -32 -116 -29 -237l30 -1009l-619 -11l9 463c1 51 2 108 3 170
c1 41 2 91 3 149c2 97 3 145 3 146c2 301 78 528 229 683c53 55 115 99 184 132c26 13 53 24 81 33c19 7 40 13 62 18c89 22 185 36 289 41c122 7 218 -2 289 -26c50 -17 99 -40 146 -68c55 -33 96 -66 124 -101c106 -129 131 -260 74 -394c-20 -48 -48 -90 -85 -126
c-31 -32 -58 -49 -80 -52zM851 1098l8 1l1 -1h-9z" />
    <glyph glyph-name="agrave" unicode="&#xe0;" horiz-adv-x="1909" 
 />
    <glyph glyph-name="aacute" unicode="&#xe1;" horiz-adv-x="1909" 
 />
    <glyph glyph-name="acircumflex" unicode="&#xe2;" horiz-adv-x="1909" 
 />
    <glyph glyph-name="atilde" unicode="&#xe3;" horiz-adv-x="1909" 
 />
    <glyph glyph-name="adieresis" unicode="&#xe4;" horiz-adv-x="1909" 
 />
    <glyph glyph-name="aring" unicode="&#xe5;" horiz-adv-x="1909" 
 />
    <glyph glyph-name="ae" unicode="&#xe6;" horiz-adv-x="2605" 
d="M1885 460l665 37l-3 -468l-1192 -26l-7 198l-546 -7l-258 -314l-544 319l1294 1486l1149 96l23 -478l-589 -19l3 -209l354 39l-5 -444l-343 -13zM1326 799l-201 -232c69 0 139 -3 210 -8z" />
    <glyph glyph-name="ccedilla" unicode="&#xe7;" horiz-adv-x="1699" 
d="M1287 546l192 -363c-141 -107 -302 -167 -481 -182l-20 -54c43 -17 79 -40 109 -69c35 -33 52 -77 53 -130c1 -51 -14 -106 -43 -166c-27 -53 -60 -99 -99 -140c-45 -46 -99 -79 -163 -100c-71 -22 -151 -27 -240 -16h-1h-1c-2 1 -4 1 -7 1c-7 1 -14 3 -21 4
c-24 5 -46 9 -66 13c-65 14 -99 26 -104 36l-5 10l5 11l103 187l9 16l18 -5c109 -32 190 -32 241 1c17 11 30 24 39 41c3 5 5 11 7 16c1 1 1 3 1 5v1l1 1v1v1c9 33 5 59 -10 78c-16 19 -43 32 -82 40c-15 3 -30 5 -46 6c-13 1 -25 1 -35 0l-35 -2l12 33l70 205
c-221 54 -397 171 -528 350c-133 181 -186 381 -159 598c14 117 51 225 112 326c58 97 134 180 227 249c197 147 421 205 671 174c214 -26 396 -113 547 -261l-234 -347c-63 51 -136 82 -219 92c-110 13 -208 -10 -295 -71c-86 -61 -135 -140 -147 -239s17 -188 86 -267
s159 -126 269 -139c98 -12 188 6 269 55z" />
    <glyph glyph-name="egrave" unicode="&#xe8;" horiz-adv-x="1282" 
 />
    <glyph glyph-name="eacute" unicode="&#xe9;" horiz-adv-x="1282" 
 />
    <glyph glyph-name="ecircumflex" unicode="&#xea;" horiz-adv-x="1282" 
 />
    <glyph glyph-name="edieresis" unicode="&#xeb;" horiz-adv-x="1282" 
 />
    <glyph glyph-name="igrave" unicode="&#xec;" horiz-adv-x="713" 
 />
    <glyph glyph-name="iacute" unicode="&#xed;" horiz-adv-x="713" 
 />
    <glyph glyph-name="icircumflex" unicode="&#xee;" horiz-adv-x="713" 
 />
    <glyph glyph-name="idieresis" unicode="&#xef;" horiz-adv-x="713" 
 />
    <glyph glyph-name="eth" unicode="&#xf0;" horiz-adv-x="1635" 
 />
    <glyph glyph-name="ntilde" unicode="&#xf1;" horiz-adv-x="1798" 
 />
    <glyph glyph-name="ograve" unicode="&#xf2;" horiz-adv-x="1835" 
 />
    <glyph glyph-name="oacute" unicode="&#xf3;" horiz-adv-x="1835" 
 />
    <glyph glyph-name="ocircumflex" unicode="&#xf4;" horiz-adv-x="1835" 
 />
    <glyph glyph-name="otilde" unicode="&#xf5;" horiz-adv-x="1835" 
 />
    <glyph glyph-name="odieresis" unicode="&#xf6;" horiz-adv-x="1835" 
 />
    <glyph glyph-name="divide" unicode="&#xf7;" 
 />
    <glyph glyph-name="oslash" unicode="&#xf8;" horiz-adv-x="1892" 
d="M1477 1663l-53 -109c155 -78 272 -191 350 -338c81 -150 106 -311 77 -484c-19 -115 -61 -223 -125 -324c-63 -97 -144 -181 -241 -253c-205 -151 -432 -217 -683 -197c-49 5 -97 12 -144 23l-104 -201l-127 72l89 174c-171 72 -302 185 -391 339
c-91 156 -121 326 -91 509c19 114 62 222 127 323c63 97 142 182 239 253c205 151 433 216 684 197c65 -5 129 -17 190 -35l67 117zM1157 558c77 59 124 134 139 223c9 56 4 110 -16 161c-19 49 -50 91 -93 126l-290 -595c97 -3 183 26 260 85zM719 1067
c-82 -61 -130 -137 -145 -229c-12 -69 -2 -134 31 -195c32 -59 79 -103 142 -134l300 627c-21 5 -40 8 -57 9c-99 8 -190 -18 -271 -78z" />
    <glyph glyph-name="ugrave" unicode="&#xf9;" horiz-adv-x="1698" 
 />
    <glyph glyph-name="uacute" unicode="&#xfa;" horiz-adv-x="1698" 
 />
    <glyph glyph-name="ucircumflex" unicode="&#xfb;" horiz-adv-x="1698" 
 />
    <glyph glyph-name="udieresis" unicode="&#xfc;" horiz-adv-x="1698" 
 />
    <glyph glyph-name="yacute" unicode="&#xfd;" horiz-adv-x="1958" 
 />
    <glyph glyph-name="thorn" unicode="&#xfe;" horiz-adv-x="1476" 
 />
    <glyph glyph-name="ydieresis" unicode="&#xff;" horiz-adv-x="1958" 
 />
    <glyph glyph-name="dotlessi" unicode="&#x131;" horiz-adv-x="713" 
 />
    <glyph glyph-name="circumflex" unicode="&#x2c6;" horiz-adv-x="964" 
d="M480 2553l93 -80l336 -288l-208 -242l-242 207l-278 -192l-181 263l379 262z" />
    <glyph glyph-name="caron" unicode="&#x2c7;" horiz-adv-x="964" 
d="M429 1943l-94 80l-335 287l208 243l242 -208l277 192l182 -262l-379 -262z" />
    <glyph glyph-name="uni02C9" unicode="&#x2c9;" horiz-adv-x="823" 
 />
    <glyph glyph-name="breve" unicode="&#x2d8;" horiz-adv-x="1047" 
 />
    <glyph glyph-name="dotaccent" unicode="&#x2d9;" horiz-adv-x="524" 
 />
    <glyph glyph-name="ring" unicode="&#x2da;" horiz-adv-x="511" 
 />
    <glyph glyph-name="ogonek" unicode="&#x2db;" horiz-adv-x="666" 
 />
    <glyph glyph-name="tilde" unicode="&#x2dc;" horiz-adv-x="1182" 
 />
    <glyph glyph-name="hungarumlaut" unicode="&#x2dd;" 
 />
    <glyph glyph-name="endash" unicode="&#x2013;" 
 />
    <glyph glyph-name="emdash" unicode="&#x2014;" 
 />
    <glyph glyph-name="quoteleft" unicode="&#x2018;" horiz-adv-x="533" 
 />
    <glyph glyph-name="quoteright" unicode="&#x2019;" horiz-adv-x="527" 
 />
    <glyph glyph-name="quotesinglbase" unicode="&#x201a;" horiz-adv-x="527" 
 />
    <glyph glyph-name="quotedblleft" unicode="&#x201c;" horiz-adv-x="1083" 
 />
    <glyph glyph-name="quotedblright" unicode="&#x201d;" horiz-adv-x="1083" 
 />
    <glyph glyph-name="quotedblbase" unicode="&#x201e;" horiz-adv-x="1111" 
 />
    <glyph glyph-name="dagger" unicode="&#x2020;" 
 />
    <glyph glyph-name="daggerdbl" unicode="&#x2021;" 
 />
    <glyph glyph-name="bullet" unicode="&#x2022;" 
 />
    <glyph glyph-name="ellipsis" unicode="&#x2026;" horiz-adv-x="2048" 
 />
    <glyph glyph-name="guilsinglleft" unicode="&#x2039;" 
 />
    <glyph glyph-name="guilsinglright" unicode="&#x203a;" horiz-adv-x="2353" 
 />
    <glyph glyph-name="fraction" unicode="&#x2044;" 
 />
    <glyph glyph-name="fraction" unicode="&#x2215;" 
 />
    <glyph glyph-name="franc" unicode="&#x20a3;" 
 />
    <glyph glyph-name="lira" unicode="&#x20a4;" 
 />
    <glyph glyph-name="peseta" unicode="&#x20a7;" 
 />
    <glyph glyph-name="Euro" unicode="&#x20ac;" horiz-adv-x="1330" 
 />
    <glyph glyph-name="uni2116" unicode="&#x2116;" 
 />
    <glyph glyph-name="trademark" unicode="&#x2122;" 
 />
    <glyph glyph-name="partialdiff" unicode="&#x2202;" 
 />
    <glyph glyph-name="increment" unicode="&#x2206;" 
 />
    <glyph glyph-name="product" unicode="&#x220f;" 
 />
    <glyph glyph-name="summation" unicode="&#x2211;" 
 />
    <glyph glyph-name="minus" unicode="&#x2212;" 
 />
    <glyph glyph-name="radical" unicode="&#x221a;" 
 />
    <glyph glyph-name="infinity" unicode="&#x221e;" 
 />
    <glyph glyph-name="integral" unicode="&#x222b;" 
 />
    <glyph glyph-name="approxequal" unicode="&#x2248;" 
 />
    <glyph glyph-name="lessequal" unicode="&#x2264;" 
 />
    <glyph glyph-name="greaterequal" unicode="&#x2265;" 
 />
    <glyph glyph-name="uniF001" unicode="&#xf001;" 
 />
    <glyph glyph-name="uniF001" unicode="&#xfb01;" 
 />
    <glyph glyph-name="uniF002" unicode="&#xf002;" 
 />
    <glyph glyph-name="uniF002" unicode="&#xfb02;" 
 />
    <glyph glyph-name="Ydieresis" horiz-adv-x="1958" 
 />
    <glyph glyph-name="Aogonek" unicode="&#x104;" horiz-adv-x="1909" 
 />
    <glyph glyph-name="aogonek" unicode="&#x105;" horiz-adv-x="1909" 
 />
    <glyph glyph-name="Cacute" unicode="&#x106;" horiz-adv-x="1671" 
 />
    <glyph glyph-name="cacute" unicode="&#x107;" horiz-adv-x="1671" 
 />
    <glyph glyph-name="Eogonek" unicode="&#x118;" horiz-adv-x="1282" 
 />
    <glyph glyph-name="eogonek" unicode="&#x119;" horiz-adv-x="1282" 
 />
    <glyph glyph-name="Lslash" unicode="&#x141;" horiz-adv-x="1488" 
 />
    <glyph glyph-name="lslash" unicode="&#x142;" horiz-adv-x="1488" 
 />
    <glyph glyph-name="Nacute" unicode="&#x143;" horiz-adv-x="1798" 
 />
    <glyph glyph-name="nacute" unicode="&#x144;" horiz-adv-x="1798" 
 />
    <glyph glyph-name="OE" unicode="&#x152;" horiz-adv-x="2547" 
 />
    <glyph glyph-name="oe" unicode="&#x153;" horiz-adv-x="2547" 
 />
    <glyph glyph-name="Zdotaccent" unicode="&#x17b;" horiz-adv-x="1720" 
 />
    <glyph glyph-name="zdotaccent" unicode="&#x17c;" horiz-adv-x="1720" 
 />
    <glyph glyph-name="Zacute" unicode="&#x179;" horiz-adv-x="1720" 
 />
    <glyph glyph-name="zacute" unicode="&#x17a;" horiz-adv-x="1720" 
 />
    <glyph glyph-name="Ncaron" unicode="&#x147;" horiz-adv-x="1798" 
 />
    <glyph glyph-name="ncaron" unicode="&#x148;" horiz-adv-x="1798" 
 />
    <glyph glyph-name="Rcaron" unicode="&#x158;" horiz-adv-x="1528" 
 />
    <glyph glyph-name="rcaron" unicode="&#x159;" horiz-adv-x="1528" 
 />
    <glyph glyph-name="Scaron" unicode="&#x160;" horiz-adv-x="1316" 
 />
    <glyph glyph-name="scaron" unicode="&#x161;" horiz-adv-x="1339" 
 />
    <glyph glyph-name="Tcaron" unicode="&#x164;" horiz-adv-x="1479" 
 />
    <glyph glyph-name="Zcaron" unicode="&#x17d;" horiz-adv-x="1720" 
 />
    <glyph glyph-name="zcaron" unicode="&#x17e;" horiz-adv-x="1720" 
 />
    <glyph glyph-name="tcaron" unicode="&#x165;" horiz-adv-x="1479" 
 />
    </font>
</defs>
</svg>
